<svg id="svg" version="1.1" xmlns="http://www.w3.org/2000/svg" xmlns:xlink="http://www.w3.org/1999/xlink" width="400" height="385.18518518518516" viewBox="0, 0, 400,385.18518518518516"><g id="svgg"><path id="path0" d="M75.449 3.179 L 75.337 6.358 65.265 6.461 L 55.193 6.564 55.007 7.537 C 54.905 8.073,54.788 12.618,54.748 17.638 C 54.695 24.199,54.546 26.850,54.216 27.069 C 53.964 27.236,49.942 27.316,45.279 27.246 C 40.617 27.176,36.281 27.219,35.645 27.340 L 34.489 27.560 34.297 37.576 L 34.104 47.592 24.017 47.694 L 13.930 47.797 13.805 57.778 C 13.736 63.268,13.536 67.904,13.360 68.080 C 13.184 68.257,10.106 68.459,6.520 68.530 L 0.000 68.658 0.000 99.454 L 0.000 130.250 6.744 130.250 L 13.487 130.250 13.493 110.116 C 13.497 99.041,13.635 89.767,13.801 89.506 C 14.025 89.154,16.692 89.004,24.103 88.928 L 34.104 88.825 34.204 68.308 L 34.303 47.791 54.820 47.691 L 75.337 47.592 75.530 37.380 L 75.723 27.168 85.832 27.065 L 95.941 26.962 96.044 16.853 L 96.146 6.744 157.996 6.744 L 219.846 6.744 219.946 27.264 L 220.045 47.784 230.254 47.784 L 240.462 47.784 240.462 57.996 L 240.462 68.208 250.405 68.208 C 257.624 68.208,260.473 68.335,260.809 68.671 C 261.145 69.006,261.272 71.856,261.272 79.075 L 261.272 89.017 271.477 89.017 L 281.683 89.017 281.786 99.326 L 281.888 109.634 291.715 109.721 C 297.119 109.769,301.758 109.812,302.023 109.817 C 302.396 109.824,302.505 112.131,302.505 120.039 L 302.505 130.250 312.717 130.250 L 322.929 130.250 322.929 171.477 L 322.929 212.704 312.813 212.807 L 302.697 212.909 302.595 223.224 L 302.492 233.539 312.614 233.436 L 322.736 233.333 322.839 223.025 L 322.941 212.717 333.086 212.717 L 343.231 212.717 343.489 196.050 C 343.933 167.421,343.802 131.640,343.252 130.900 C 342.832 130.334,341.602 130.245,332.948 130.157 L 323.121 130.058 322.929 120.039 L 322.736 110.019 312.717 109.827 L 302.697 109.634 302.505 99.807 C 302.399 94.403,302.172 89.764,302.000 89.499 C 301.764 89.134,299.267 89.017,291.695 89.017 L 281.702 89.017 281.603 68.497 L 281.503 47.977 271.502 47.874 C 264.091 47.798,261.423 47.648,261.200 47.296 C 261.034 47.035,260.895 42.442,260.892 37.091 C 260.887 28.104,260.835 27.356,260.212 27.305 C 259.841 27.275,256.243 27.294,252.216 27.347 C 248.189 27.400,243.897 27.318,242.678 27.165 L 240.462 26.886 240.462 13.443 L 240.462 0.000 158.012 -0.000 L 75.561 -0.000 75.449 3.179 M398.049 0.674 C 398.262 1.045,398.785 1.782,399.210 2.312 L 399.983 3.276 399.991 1.638 C 400.000 0.069,399.951 0.000,398.830 0.000 C 397.826 0.000,397.715 0.095,398.049 0.674 M117.020 27.617 C 116.879 27.759,116.763 36.949,116.763 48.041 L 116.763 68.208 137.380 68.208 L 157.996 68.208 157.996 57.996 L 157.996 47.784 168.208 47.784 L 178.420 47.784 178.420 37.572 L 178.420 27.360 147.848 27.360 C 131.034 27.360,117.161 27.476,117.020 27.617 M157.996 78.802 L 157.996 89.011 137.476 89.110 L 116.956 89.210 116.956 99.422 L 116.956 109.634 147.592 109.634 L 178.227 109.634 178.327 89.114 L 178.427 68.593 168.211 68.593 L 157.996 68.593 157.996 78.802 M55.016 119.942 L 54.913 130.058 44.701 130.250 L 34.489 130.443 34.489 150.867 L 34.489 171.291 44.599 171.394 L 54.708 171.496 54.811 161.374 L 54.913 151.252 64.933 151.154 C 70.443 151.101,75.212 150.957,75.530 150.834 C 76.465 150.475,95.682 150.633,96.051 151.003 C 96.237 151.189,96.373 155.786,96.352 161.220 L 96.315 171.098 106.340 171.098 L 116.365 171.098 116.467 161.175 L 116.570 151.252 158.092 151.154 L 199.615 151.056 199.615 161.084 L 199.615 171.111 209.538 171.008 L 219.461 170.906 219.564 161.091 C 219.620 155.694,219.809 151.135,219.982 150.962 C 220.324 150.620,240.046 150.515,240.384 150.853 C 240.498 150.967,245.157 151.060,250.739 151.060 L 260.886 151.060 260.886 161.265 L 260.886 171.471 250.771 171.574 L 240.655 171.676 240.555 192.190 L 240.456 212.704 230.343 212.807 L 220.231 212.909 220.131 233.430 L 220.032 253.950 230.241 253.950 L 240.450 253.950 240.552 243.834 L 240.655 233.719 261.079 233.526 L 281.503 233.333 281.503 223.121 L 281.503 212.909 271.291 212.717 L 261.079 212.524 260.979 192.004 L 260.880 171.484 271.291 171.484 L 281.702 171.484 281.603 150.963 L 281.503 130.443 260.989 130.343 L 240.475 130.244 240.372 120.132 L 240.270 110.019 219.846 110.019 L 199.422 110.019 199.319 120.135 L 199.216 130.250 157.990 130.250 L 116.763 130.250 116.763 120.039 L 116.763 109.827 85.941 109.827 L 55.119 109.827 55.016 119.942 M55.013 191.997 L 54.913 212.524 44.701 212.717 L 34.489 212.909 34.489 223.121 L 34.489 233.333 44.599 233.436 L 54.708 233.539 54.811 243.648 L 54.913 253.757 65.125 253.972 C 70.742 254.091,75.382 254.221,75.437 254.261 C 75.492 254.302,75.492 263.483,75.437 274.663 L 75.337 294.990 54.913 295.192 C 43.680 295.302,34.446 295.432,34.393 295.481 C 34.340 295.529,34.297 300.164,34.297 305.780 L 34.297 315.992 24.130 315.992 L 13.963 315.992 13.730 316.859 C 13.603 317.336,13.496 321.932,13.493 327.071 L 13.487 336.416 12.620 336.470 C 11.121 336.563,6.484 336.701,3.179 336.752 L 0.000 336.802 0.000 347.013 L 0.000 357.225 6.744 357.225 L 13.487 357.225 13.487 346.821 L 13.487 336.416 23.892 336.416 L 34.297 336.416 34.297 326.204 L 34.297 315.992 75.530 315.992 L 116.763 315.992 116.763 326.204 L 116.763 336.416 126.558 336.416 C 131.945 336.416,136.627 336.521,136.963 336.650 C 137.497 336.855,137.572 338.136,137.572 347.055 L 137.572 357.225 147.784 357.225 L 157.996 357.225 157.996 371.291 L 157.996 385.356 168.208 385.356 L 178.420 385.356 178.420 381.692 L 178.420 378.028 199.133 378.128 L 219.846 378.227 219.957 381.792 L 220.067 385.356 230.265 385.356 L 240.462 385.356 240.462 371.291 L 240.462 357.225 250.674 357.225 L 260.886 357.225 260.886 346.821 L 260.886 336.416 271.291 336.416 L 281.696 336.416 281.696 326.204 L 281.696 315.992 322.929 315.992 L 364.162 315.992 364.162 326.198 L 364.162 336.404 374.470 336.506 L 384.778 336.609 384.881 346.917 L 384.984 357.225 392.492 357.225 L 400.000 357.225 400.000 336.609 L 400.000 315.992 392.542 315.992 L 385.083 315.992 384.870 312.123 C 384.753 309.994,384.751 305.608,384.867 302.376 C 385.053 297.172,385.002 296.425,384.418 295.841 C 383.523 294.946,262.064 294.806,261.322 295.700 C 261.022 296.062,260.863 302.280,260.793 316.413 L 260.694 336.609 252.216 336.728 C 247.553 336.794,243.002 336.740,242.104 336.609 L 240.469 336.370 240.369 315.873 L 240.270 295.376 219.750 295.276 L 199.229 295.176 199.229 284.968 L 199.229 274.759 209.391 274.759 L 219.552 274.759 219.791 273.314 C 219.923 272.519,220.032 267.924,220.034 263.102 L 220.039 254.335 209.634 254.335 L 199.229 254.335 199.229 264.547 L 199.229 274.759 189.017 274.759 L 178.805 274.759 178.770 283.911 C 178.751 288.945,178.707 293.584,178.674 294.220 L 178.613 295.376 157.900 295.475 L 137.187 295.575 137.187 285.167 L 137.187 274.759 126.981 274.759 L 116.776 274.759 116.673 264.529 L 116.570 254.298 106.358 254.220 L 96.146 254.143 96.044 243.834 L 95.941 233.526 85.738 233.526 L 75.534 233.526 75.436 202.601 L 75.337 171.676 65.225 171.574 L 55.113 171.471 55.013 191.997 M137.572 202.505 L 137.572 212.717 147.784 212.717 L 157.996 212.717 157.996 202.505 L 157.996 192.293 147.784 192.293 L 137.572 192.293 137.572 202.505 M178.805 202.505 L 178.805 212.717 189.017 212.717 L 199.229 212.717 199.229 202.505 L 199.229 192.293 189.017 192.293 L 178.805 192.293 178.805 202.505 M-0.000 223.112 L 0.000 233.526 6.750 233.526 L 13.500 233.526 13.397 223.218 L 13.295 212.909 6.647 212.804 L -0.000 212.699 -0.000 223.112 M117.020 212.974 C 116.879 213.115,116.763 222.392,116.763 233.590 L 116.763 253.950 137.380 253.950 L 157.996 253.950 157.996 243.744 L 157.996 233.539 147.688 233.436 L 137.380 233.333 137.277 223.025 L 137.174 212.717 127.226 212.717 C 121.754 212.717,117.161 212.832,117.020 212.974 M116.673 285.067 L 116.776 295.183 106.600 295.183 L 96.423 295.183 96.153 287.765 C 96.004 283.685,95.974 279.306,96.086 278.035 C 96.197 276.763,96.300 275.503,96.314 275.234 C 96.334 274.851,98.505 274.768,106.455 274.849 L 116.570 274.952 116.673 285.067 M136.686 295.489 C 137.260 295.854,137.481 315.082,136.918 315.645 C 136.707 315.856,132.483 315.963,126.756 315.903 L 116.956 315.800 116.853 305.980 C 116.796 300.579,116.834 295.940,116.937 295.671 C 117.148 295.121,135.835 294.948,136.686 295.489 M199.229 305.588 L 199.422 315.800 209.538 315.902 L 219.653 316.005 219.653 326.169 C 219.653 335.082,219.578 336.363,219.044 336.568 C 218.708 336.696,214.116 336.802,208.838 336.802 L 199.242 336.802 199.139 346.917 L 199.037 357.033 188.921 357.135 L 178.805 357.238 178.745 348.272 C 178.681 338.714,178.632 337.271,178.366 337.004 C 178.273 336.911,173.695 336.784,168.193 336.722 L 158.189 336.609 158.189 326.397 L 158.189 316.185 168.356 315.992 L 178.522 315.800 178.448 306.279 C 178.351 293.790,177.034 295.147,189.131 295.273 L 199.037 295.376 199.229 305.588 M13.873 381.696 L 13.873 385.356 24.085 385.356 L 34.297 385.356 34.297 381.696 L 34.297 378.035 24.085 378.035 L 13.873 378.035 13.873 381.696 M55.106 381.696 L 55.106 385.356 65.318 385.356 L 75.530 385.356 75.530 381.696 L 75.530 378.035 65.318 378.035 L 55.106 378.035 55.106 381.696 M96.339 381.696 L 96.339 385.356 106.551 385.356 L 116.763 385.356 116.763 381.696 L 116.763 378.035 106.551 378.035 L 96.339 378.035 96.339 381.696 M281.696 381.696 L 281.696 385.356 291.908 385.356 L 302.119 385.356 302.119 381.696 L 302.119 378.035 291.908 378.035 L 281.696 378.035 281.696 381.696 M322.929 381.696 L 322.929 385.356 333.141 385.356 L 343.353 385.356 343.353 381.696 L 343.353 378.035 333.141 378.035 L 322.929 378.035 322.929 381.696 M364.162 381.696 L 364.162 385.356 374.374 385.356 L 384.586 385.356 384.586 381.696 L 384.586 378.035 374.374 378.035 L 364.162 378.035 364.162 381.696 " stroke="none" fill="#080606" fill-rule="evenodd"></path><path id="path1" d="M75.690 150.642 C 75.602 150.731,75.530 155.453,75.530 161.137 L 75.530 171.471 85.645 171.574 L 95.761 171.676 95.761 181.888 L 95.761 192.100 85.642 192.203 L 75.523 192.306 75.623 212.820 L 75.723 233.333 86.031 233.436 L 96.339 233.539 96.339 243.744 L 96.339 253.950 106.551 253.950 L 116.763 253.950 116.763 233.333 L 116.763 212.717 126.975 212.717 L 137.187 212.717 137.187 202.553 L 137.187 192.389 138.285 192.170 C 138.889 192.049,140.666 192.004,142.235 192.070 C 143.803 192.136,147.994 192.213,151.548 192.241 L 158.009 192.293 157.906 202.601 L 157.803 212.909 147.688 213.012 L 137.572 213.115 137.572 223.320 L 137.572 233.526 147.790 233.526 L 158.009 233.526 157.906 243.834 L 157.803 254.143 137.277 254.242 L 116.750 254.342 116.853 264.454 L 116.956 274.566 127.264 274.669 L 137.572 274.772 137.572 284.977 L 137.572 295.183 157.996 295.183 L 178.420 295.183 178.420 284.977 L 178.420 274.772 188.728 274.669 L 199.037 274.566 199.229 264.355 L 199.422 254.143 209.534 254.040 L 219.646 253.937 219.746 233.423 L 219.846 212.909 230.154 212.807 L 240.462 212.704 240.462 202.499 L 240.462 192.293 230.466 192.293 C 223.982 192.293,220.383 192.153,220.223 191.893 C 219.888 191.352,219.871 172.452,220.204 171.912 C 220.388 171.615,223.546 171.484,230.472 171.484 L 240.475 171.484 240.372 161.065 L 240.270 150.647 230.284 150.647 C 224.791 150.647,220.155 150.789,219.982 150.962 C 219.809 151.135,219.620 155.694,219.564 161.091 L 219.461 170.906 209.538 171.008 L 199.615 171.111 199.615 161.084 L 199.615 151.056 158.092 151.154 L 116.570 151.252 116.467 161.175 L 116.365 171.098 106.340 171.098 L 96.315 171.098 96.352 161.220 C 96.373 155.786,96.238 151.189,96.053 151.004 C 95.724 150.676,76.007 150.325,75.690 150.642 M199.037 202.615 L 199.037 212.909 189.611 213.027 C 184.427 213.092,179.788 213.045,179.303 212.924 L 178.420 212.702 178.420 202.526 C 178.420 193.309,178.481 192.338,179.066 192.225 C 179.422 192.156,184.061 192.150,189.375 192.210 L 199.037 192.320 199.037 202.615 M34.480 316.472 C 34.381 316.738,34.256 321.378,34.202 326.782 L 34.104 336.609 23.995 336.712 L 13.886 336.814 13.783 346.924 L 13.680 357.033 6.840 357.138 L 0.000 357.243 0.000 371.300 L 0.000 385.356 6.730 385.356 L 13.460 385.356 13.570 381.599 L 13.680 377.842 23.892 377.842 L 34.104 377.842 34.214 381.599 L 34.325 385.356 44.509 385.356 L 54.693 385.356 54.803 381.599 L 54.913 377.842 65.125 377.842 L 75.337 377.842 75.447 381.599 L 75.558 385.356 85.742 385.356 L 95.926 385.356 96.036 381.599 L 96.146 377.842 106.358 377.842 L 116.570 377.842 116.681 381.599 L 116.791 385.356 137.398 385.356 L 158.006 385.356 157.905 371.387 L 157.803 357.418 147.495 357.315 L 137.187 357.213 137.187 347.014 L 137.187 336.814 127.071 336.712 L 116.956 336.609 116.763 326.397 L 116.570 316.185 75.615 316.087 C 43.052 316.009,34.622 316.088,34.480 316.472 M281.878 316.472 C 281.780 316.738,281.655 321.378,281.601 326.782 L 281.503 336.609 271.394 336.712 L 261.284 336.814 261.182 346.924 L 261.079 357.033 250.867 357.225 L 240.655 357.418 240.554 371.387 L 240.453 385.356 261.060 385.356 L 281.668 385.356 281.778 381.599 L 281.888 377.842 292.100 377.842 L 302.312 377.842 302.422 381.599 L 302.533 385.356 312.717 385.356 L 322.901 385.356 323.011 381.599 L 323.121 377.842 333.333 377.842 L 343.545 377.842 343.656 381.599 L 343.766 385.356 353.950 385.356 L 364.134 385.356 364.244 381.599 L 364.355 377.842 374.566 377.842 L 384.778 377.842 384.889 381.599 L 384.999 385.356 392.101 385.356 C 398.727 385.356,399.229 385.307,399.601 384.611 C 399.854 384.139,400.000 378.993,400.000 370.554 L 400.000 357.242 392.389 357.137 L 384.778 357.033 384.676 346.924 L 384.573 336.814 374.464 336.712 L 364.355 336.609 364.162 326.397 L 363.969 316.185 323.014 316.087 C 290.451 316.009,282.021 316.088,281.878 316.472 M178.805 381.696 L 178.805 385.356 199.229 385.356 L 219.653 385.356 219.653 381.696 L 219.653 378.035 199.229 378.035 L 178.805 378.035 178.805 381.696 " stroke="none" fill="#fafafa" fill-rule="evenodd"></path><path id="path2" d="M0.462 0.462 C 0.110 0.815,-0.000 8.965,-0.000 34.792 L -0.000 68.658 6.520 68.530 C 10.106 68.459,13.184 68.257,13.360 68.080 C 13.536 67.904,13.736 63.268,13.805 57.778 L 13.930 47.797 24.017 47.694 L 34.104 47.592 34.297 37.576 L 34.489 27.560 35.645 27.340 C 36.281 27.219,40.617 27.176,45.279 27.246 C 49.942 27.316,53.964 27.236,54.216 27.069 C 54.546 26.850,54.695 24.199,54.748 17.638 C 54.788 12.618,54.905 8.073,55.007 7.537 L 55.193 6.564 65.265 6.461 L 75.337 6.358 75.449 3.179 L 75.561 0.000 38.243 0.000 C 9.732 0.000,0.816 0.109,0.462 0.462 M240.462 13.443 L 240.462 26.886 242.678 27.165 C 243.897 27.318,248.189 27.400,252.216 27.347 C 256.243 27.294,259.841 27.275,260.212 27.305 C 260.835 27.356,260.887 28.104,260.892 37.091 C 260.895 42.442,261.034 47.035,261.200 47.296 C 261.423 47.648,264.091 47.798,271.502 47.874 L 281.503 47.977 281.603 68.497 L 281.702 89.017 291.695 89.017 C 299.267 89.017,301.764 89.134,302.000 89.499 C 302.172 89.764,302.399 94.403,302.505 99.807 L 302.697 109.634 312.717 109.827 L 322.736 110.019 322.929 120.039 L 323.121 130.058 333.034 130.161 C 344.910 130.284,343.785 129.495,343.737 137.675 C 343.718 140.904,343.710 149.816,343.720 157.480 L 343.738 171.416 371.869 171.403 L 400.000 171.390 400.000 140.608 L 400.000 109.827 395.472 109.771 C 389.127 109.694,385.605 109.847,385.216 110.215 C 385.033 110.389,384.911 114.503,384.944 119.358 C 384.980 124.577,384.844 128.607,384.612 129.218 L 384.219 130.250 374.425 130.250 C 365.848 130.250,364.601 130.175,364.396 129.641 C 364.267 129.306,364.159 124.927,364.156 119.911 C 364.153 114.894,364.010 110.570,363.840 110.301 C 363.606 109.933,361.203 109.791,354.038 109.723 C 348.223 109.669,344.394 109.482,344.154 109.241 C 343.912 108.999,343.744 105.308,343.716 99.615 C 343.691 94.538,343.507 90.076,343.306 89.700 C 342.971 89.075,342.136 89.017,333.397 89.017 C 326.488 89.017,323.726 88.890,323.391 88.555 C 322.902 88.066,322.694 70.424,323.163 69.203 C 323.367 68.670,324.580 68.593,332.797 68.593 C 344.974 68.593,343.738 69.830,343.738 57.652 C 343.738 49.436,343.815 48.223,344.348 48.018 C 344.683 47.889,349.070 47.784,354.097 47.784 C 360.692 47.784,363.366 47.655,363.699 47.322 C 364.033 46.988,364.163 44.279,364.168 37.592 C 364.171 32.494,364.307 28.114,364.470 27.857 C 364.820 27.307,383.687 27.075,384.218 27.614 C 384.393 27.792,384.572 32.100,384.615 37.187 C 384.715 48.976,383.806 47.784,392.692 47.784 L 400.000 47.784 400.000 25.593 L 400.000 3.402 398.779 1.701 L 397.557 0.000 319.010 0.000 L 240.462 0.000 240.462 13.443 M54.978 151.317 C 54.836 151.458,54.721 156.050,54.721 161.522 L 54.721 171.471 65.029 171.574 L 75.337 171.676 75.440 181.991 L 75.542 192.306 85.652 192.203 L 95.761 192.100 95.761 181.888 L 95.761 171.676 85.645 171.574 L 75.530 171.471 75.530 161.265 L 75.530 151.060 65.382 151.060 C 59.801 151.060,55.119 151.175,54.978 151.317 M240.462 161.272 L 240.462 171.484 230.466 171.484 C 223.545 171.484,220.388 171.615,220.204 171.912 C 219.871 172.452,219.888 191.352,220.223 191.893 C 220.383 192.152,223.980 192.293,230.460 192.293 L 240.450 192.293 240.552 181.985 L 240.655 171.676 250.771 171.574 L 260.886 171.471 260.886 161.265 L 260.886 151.060 250.674 151.060 L 240.462 151.060 240.462 161.272 M96.314 275.234 C 96.300 275.503,96.197 276.763,96.086 278.035 C 95.974 279.306,96.004 283.685,96.153 287.765 L 96.423 295.183 106.600 295.183 L 116.776 295.183 116.673 285.067 L 116.570 274.952 106.455 274.849 C 98.505 274.768,96.334 274.851,96.314 275.234 M116.943 295.655 C 116.836 295.933,116.796 300.579,116.853 305.980 L 116.956 315.800 126.888 315.902 C 135.335 315.990,136.853 315.921,137.038 315.439 C 137.157 315.128,137.283 310.458,137.317 305.063 L 137.380 295.252 127.258 295.202 C 119.239 295.162,117.096 295.256,116.943 295.655 M178.822 295.922 C 178.392 296.726,178.252 313.208,178.663 314.740 L 178.895 315.607 189.069 315.607 L 199.242 315.607 199.139 305.491 L 199.037 295.376 189.131 295.273 C 179.646 295.174,179.208 295.202,178.822 295.922 " stroke="none" fill="#f905b8" fill-rule="evenodd"></path><path id="path3" d="M96.339 17.148 L 96.339 27.360 86.127 27.360 L 75.915 27.360 75.915 37.303 C 75.915 44.522,75.789 47.371,75.453 47.707 C 75.105 48.055,69.998 48.170,54.836 48.170 L 34.682 48.170 34.682 68.177 C 34.682 79.180,34.577 88.458,34.448 88.793 C 34.243 89.328,32.963 89.403,24.047 89.403 L 13.880 89.403 13.780 109.923 L 13.680 130.443 6.840 130.548 L 0.000 130.654 0.000 171.685 L 0.000 212.717 6.930 212.717 L 13.860 212.717 13.963 223.025 L 14.066 233.333 23.982 233.436 L 33.899 233.539 34.001 223.224 L 34.104 212.909 44.316 212.717 L 54.528 212.524 54.528 192.293 L 54.528 172.062 44.647 171.959 C 36.932 171.879,34.671 171.742,34.335 171.337 C 34.027 170.966,33.933 165.073,34.004 150.631 L 34.104 130.443 44.316 130.250 L 54.528 130.058 54.721 119.846 L 54.913 109.634 85.645 109.535 L 116.378 109.437 116.378 99.467 C 116.378 91.482,116.483 89.410,116.907 89.058 C 117.292 88.738,122.917 88.646,137.524 88.721 L 157.611 88.825 157.611 78.712 L 157.611 68.600 137.091 68.500 L 116.570 68.401 116.570 47.784 L 116.570 27.168 147.688 27.069 L 178.805 26.970 178.805 37.336 C 178.805 46.433,178.731 47.730,178.196 47.936 C 177.861 48.064,173.265 48.170,167.984 48.170 L 158.382 48.170 158.382 58.189 L 158.382 68.208 168.593 68.208 L 178.805 68.208 178.805 89.017 L 178.805 109.827 147.977 109.827 L 117.148 109.827 117.148 120.039 L 117.148 130.250 157.990 130.250 L 198.831 130.250 198.934 119.942 L 199.037 109.634 219.846 109.634 L 240.655 109.634 240.758 119.939 L 240.860 130.244 261.374 130.343 L 281.888 130.443 281.888 151.060 L 281.888 171.676 271.676 171.869 L 261.464 172.062 261.464 192.293 L 261.464 212.524 271.676 212.717 L 281.888 212.909 281.991 223.224 L 282.094 233.539 292.010 233.436 L 301.927 233.333 302.029 223.025 L 302.132 212.717 312.338 212.717 L 322.543 212.717 322.543 171.683 L 322.543 130.649 312.428 130.546 L 302.312 130.443 302.119 120.231 L 301.927 110.019 291.715 109.827 L 281.503 109.634 281.400 99.518 L 281.297 89.403 271.574 89.397 C 266.225 89.394,261.636 89.255,261.375 89.089 C 261.023 88.866,260.873 86.198,260.797 78.787 L 260.694 68.786 250.482 68.593 L 240.270 68.401 240.077 58.189 L 239.884 47.977 229.865 47.977 L 219.846 47.977 219.746 27.457 L 219.646 6.936 157.993 6.936 L 96.339 6.936 96.339 17.148 M364.396 48.394 C 364.267 48.729,364.162 53.324,364.162 58.606 C 364.162 63.887,364.118 68.244,364.066 68.288 C 364.013 68.332,359.461 68.462,353.950 68.577 L 343.931 68.786 343.931 78.805 L 343.931 88.825 353.950 89.017 L 363.969 89.210 364.072 99.279 L 364.174 109.347 365.372 109.587 C 366.907 109.894,382.571 109.891,383.719 109.584 L 384.586 109.351 384.586 99.794 C 384.586 87.633,383.566 89.017,392.527 89.017 L 400.000 89.017 400.000 78.805 L 400.000 68.593 392.725 68.593 C 387.275 68.593,385.348 68.469,385.040 68.099 C 384.776 67.780,384.619 64.193,384.600 58.030 C 384.583 52.764,384.476 48.304,384.362 48.120 C 383.945 47.444,364.659 47.709,364.396 48.394 M364.338 172.351 C 364.234 172.623,364.194 177.178,364.251 182.473 L 364.355 192.100 374.477 192.203 L 384.599 192.306 384.496 182.184 L 384.393 172.062 374.461 171.959 C 366.651 171.878,364.487 171.962,364.338 172.351 M343.926 193.160 C 343.809 193.637,343.762 198.189,343.822 203.276 L 343.931 212.524 354.046 212.627 L 364.162 212.730 364.162 202.511 L 364.162 192.293 354.150 192.293 L 344.138 192.293 343.926 193.160 M384.971 202.499 L 384.971 212.704 374.663 212.807 L 364.355 212.909 364.355 223.121 L 364.355 233.333 374.155 233.436 C 379.545 233.493,384.099 233.396,384.275 233.221 C 384.450 233.045,384.602 228.750,384.612 223.676 C 384.636 211.267,383.589 212.717,392.527 212.717 L 400.000 212.717 400.000 202.505 L 400.000 192.293 392.486 192.293 L 384.971 192.293 384.971 202.499 M178.805 326.005 C 178.805 331.307,178.805 335.776,178.805 335.934 C 178.805 336.093,183.357 336.224,188.921 336.224 L 199.037 336.224 199.037 326.397 L 199.037 316.570 188.921 316.468 L 178.805 316.365 178.805 326.005 " stroke="none" fill="#fbf206" fill-rule="evenodd"></path><path id="path4" d="M96.212 6.807 C 96.070 6.949,95.954 11.542,95.954 17.014 L 95.954 26.962 85.838 27.065 L 75.723 27.168 75.530 37.380 L 75.337 47.592 54.820 47.691 L 34.303 47.791 34.204 68.308 L 34.104 88.825 23.892 89.027 L 13.680 89.229 23.947 89.316 C 33.005 89.392,34.242 89.331,34.448 88.793 C 34.577 88.458,34.682 79.180,34.682 68.177 L 34.682 48.170 54.836 48.170 C 69.998 48.170,75.105 48.055,75.453 47.707 C 75.789 47.371,75.915 44.522,75.915 37.303 L 75.915 27.360 86.127 27.360 L 96.339 27.360 96.339 17.148 L 96.339 6.936 157.993 6.936 L 219.646 6.936 219.746 27.457 L 219.846 47.977 229.672 47.987 L 239.499 47.996 229.772 47.884 L 220.045 47.771 219.946 27.257 L 219.846 6.744 158.158 6.646 C 124.229 6.593,96.354 6.665,96.212 6.807 M116.554 27.457 C 116.453 27.722,116.415 37.042,116.470 48.170 L 116.570 68.401 137.084 68.500 L 157.598 68.600 157.707 78.905 L 157.817 89.210 157.906 78.902 L 157.996 68.593 168.215 68.593 L 178.433 68.593 178.330 89.210 C 178.274 100.549,178.357 109.827,178.516 109.827 C 178.675 109.827,178.805 100.462,178.805 89.017 L 178.805 68.208 168.593 68.208 L 158.382 68.208 158.382 58.195 L 158.382 48.183 168.304 48.073 L 178.227 47.963 168.112 47.874 L 157.996 47.784 157.996 57.996 L 157.996 68.208 137.376 68.208 L 116.756 68.208 116.856 47.881 L 116.956 27.553 147.682 27.454 L 178.407 27.356 178.517 37.666 L 178.626 47.977 178.716 37.476 L 178.805 26.975 147.772 26.975 C 123.301 26.975,116.700 27.077,116.554 27.457 M373.428 27.272 C 367.096 27.348,364.695 27.503,364.475 27.850 C 364.309 28.110,364.171 32.494,364.168 37.592 C 364.163 44.279,364.033 46.988,363.699 47.322 C 363.366 47.655,360.692 47.784,354.097 47.784 C 349.070 47.784,344.683 47.889,344.348 48.018 C 343.815 48.223,343.738 49.436,343.738 57.652 C 343.738 69.830,344.974 68.593,332.797 68.593 C 324.580 68.593,323.367 68.670,323.163 69.203 C 322.694 70.424,322.902 88.066,323.391 88.555 C 323.726 88.890,326.488 89.017,333.397 89.017 C 342.136 89.017,342.971 89.075,343.306 89.700 C 343.507 90.076,343.691 94.538,343.716 99.615 C 343.744 105.308,343.912 108.999,344.154 109.241 C 344.394 109.482,348.223 109.669,354.038 109.723 C 361.203 109.791,363.606 109.933,363.840 110.301 C 364.010 110.570,364.153 114.894,364.156 119.911 C 364.159 124.927,364.267 129.306,364.396 129.641 C 364.601 130.175,365.848 130.250,374.425 130.250 L 384.219 130.250 384.612 129.218 C 384.844 128.607,384.980 124.577,384.944 119.358 C 384.906 113.851,385.030 110.385,385.272 110.142 C 385.509 109.906,388.473 109.767,392.831 109.788 L 400.000 109.824 400.000 99.421 L 400.000 89.017 392.527 89.017 C 383.566 89.017,384.586 87.633,384.586 99.794 L 384.586 109.351 383.719 109.584 C 382.571 109.891,366.907 109.894,365.372 109.587 L 364.174 109.347 364.072 99.279 L 363.969 89.210 353.950 89.017 L 343.931 88.825 343.931 78.805 L 343.931 68.786 353.950 68.577 C 359.461 68.462,364.013 68.332,364.066 68.288 C 364.118 68.244,364.162 63.887,364.162 58.606 C 364.162 53.324,364.267 48.729,364.396 48.394 C 364.659 47.709,383.945 47.444,384.362 48.120 C 384.476 48.304,384.583 52.764,384.600 58.030 C 384.619 64.193,384.776 67.780,385.040 68.099 C 385.348 68.469,387.275 68.593,392.725 68.593 L 400.000 68.593 400.000 58.189 L 400.000 47.784 392.692 47.784 C 383.806 47.784,384.715 48.976,384.615 37.187 C 384.572 32.100,384.418 27.831,384.272 27.699 C 383.762 27.238,382.009 27.168,373.428 27.272 M240.260 57.996 L 240.270 68.401 250.482 68.593 L 260.694 68.786 260.896 78.998 L 261.098 89.210 261.185 79.171 C 261.249 71.778,261.150 69.011,260.809 68.671 C 260.473 68.335,257.625 68.208,250.411 68.208 L 240.475 68.208 240.363 57.900 L 240.250 47.592 240.260 57.996 M116.840 89.094 C 116.504 89.430,116.378 92.280,116.378 99.497 L 116.378 109.437 85.645 109.535 L 54.913 109.634 54.721 119.906 C 54.615 125.555,54.658 130.097,54.817 129.999 C 54.976 129.900,55.106 125.321,55.106 119.823 L 55.106 109.827 85.928 109.827 L 116.750 109.827 116.881 119.942 C 116.953 125.506,116.999 120.867,116.984 109.634 L 116.956 89.210 137.187 89.012 L 157.418 88.814 137.360 88.723 C 122.170 88.654,117.190 88.744,116.840 89.094 M271.387 89.306 L 281.310 89.416 281.310 99.406 C 281.310 104.900,281.440 109.476,281.599 109.575 C 281.758 109.673,281.839 105.088,281.780 99.386 L 281.671 89.017 271.568 89.107 L 261.464 89.196 271.387 89.306 M13.580 109.914 L 13.487 130.233 6.647 130.347 L -0.193 130.462 6.659 130.549 C 11.851 130.615,13.556 130.519,13.696 130.154 C 13.798 129.889,13.834 120.655,13.777 109.634 L 13.673 89.595 13.580 109.914 M199.104 109.695 C 198.961 109.838,198.883 114.565,198.931 120.199 L 199.017 130.443 199.220 120.231 L 199.422 110.019 219.846 110.019 L 240.270 110.019 240.475 120.231 L 240.681 130.443 240.668 120.039 L 240.655 109.634 220.010 109.534 C 208.655 109.479,199.247 109.552,199.104 109.695 M301.673 109.946 C 301.963 110.295,302.140 113.771,302.209 120.455 L 302.312 130.443 312.428 130.546 L 322.543 130.649 322.636 171.683 C 322.687 194.251,322.731 217.355,322.733 223.025 L 322.736 233.333 312.608 233.436 L 302.481 233.539 302.589 223.128 C 302.649 217.401,302.570 212.716,302.415 212.717 C 302.259 212.717,302.086 217.355,302.029 223.025 L 301.927 233.333 292.004 233.436 L 282.081 233.539 282.081 223.343 C 282.081 217.736,281.951 213.067,281.792 212.969 C 281.633 212.870,281.503 217.412,281.503 223.062 L 281.503 233.333 261.079 233.526 L 240.655 233.719 240.552 243.834 L 240.450 253.950 230.237 253.950 L 220.025 253.950 220.128 233.370 C 220.185 222.051,220.101 212.871,219.942 212.969 C 219.783 213.067,219.653 222.325,219.653 233.542 L 219.653 253.937 209.538 254.047 L 199.422 254.156 209.730 254.246 L 220.039 254.335 220.034 263.102 C 220.032 267.924,219.922 272.525,219.789 273.326 L 219.548 274.783 209.293 274.675 L 199.037 274.566 199.145 284.871 L 199.253 295.176 219.762 295.276 L 240.270 295.376 240.369 315.873 L 240.469 336.370 242.104 336.612 C 243.002 336.745,247.597 336.799,252.313 336.731 L 260.887 336.609 260.976 346.821 L 261.066 357.033 261.175 346.924 L 261.284 336.814 271.394 336.705 L 281.503 336.596 271.195 336.506 L 260.886 336.416 260.886 316.262 C 260.886 301.100,261.001 295.993,261.349 295.645 C 262.193 294.801,383.571 294.994,384.418 295.841 C 385.002 296.425,385.053 297.172,384.867 302.376 C 384.751 305.608,384.753 309.994,384.870 312.123 L 385.083 315.992 392.542 315.992 L 400.000 315.992 400.000 264.355 L 400.000 212.717 392.527 212.717 C 383.589 212.717,384.636 211.267,384.612 223.676 C 384.602 228.750,384.450 233.045,384.275 233.221 C 384.099 233.396,379.545 233.493,374.155 233.436 L 364.355 233.333 364.355 223.121 L 364.355 212.909 374.663 212.807 L 384.971 212.704 384.971 202.499 L 384.971 192.293 392.486 192.293 L 400.000 192.293 400.000 181.888 L 400.000 171.484 391.618 171.422 C 381.724 171.349,343.986 171.490,343.884 171.600 C 343.791 171.701,343.378 199.805,343.364 207.033 L 343.353 212.717 333.141 212.717 L 322.929 212.717 322.929 171.484 L 322.929 130.250 312.717 130.250 L 302.505 130.250 302.505 120.080 C 302.505 111.005,302.437 109.883,301.872 109.666 C 301.374 109.475,301.332 109.535,301.673 109.946 M34.168 130.507 C 33.625 131.050,33.875 170.974,34.424 171.430 C 34.762 171.710,38.295 171.891,44.733 171.959 L 54.528 172.062 54.528 192.352 C 54.528 203.512,54.658 212.563,54.817 212.465 C 54.976 212.366,55.106 203.108,55.106 191.891 L 55.106 171.496 44.798 171.394 L 34.489 171.291 34.489 150.771 C 34.489 139.485,34.475 130.250,34.457 130.250 C 34.440 130.250,34.310 130.366,34.168 130.507 M281.606 150.886 L 281.709 171.484 271.298 171.484 L 260.886 171.484 260.886 191.885 C 260.886 203.105,261.016 212.366,261.175 212.465 C 261.334 212.563,261.464 203.512,261.464 192.352 L 261.464 172.062 271.676 171.869 L 281.888 171.676 281.988 151.275 C 282.043 140.054,281.956 130.742,281.795 130.581 C 281.634 130.420,281.549 139.558,281.606 150.886 M384.496 182.184 L 384.599 192.306 374.477 192.203 L 364.355 192.100 364.251 182.473 C 364.194 177.178,364.234 172.623,364.338 172.351 C 364.487 171.962,366.651 171.878,374.461 171.959 L 384.393 172.062 384.496 182.184 M141.137 192.184 C 141.720 192.272,142.673 192.272,143.256 192.184 C 143.839 192.095,143.362 192.023,142.197 192.023 C 141.031 192.023,140.554 192.095,141.137 192.184 M137.366 212.717 C 137.366 224.056,137.415 228.784,137.476 223.224 L 137.585 213.115 147.694 213.005 L 157.803 212.896 147.694 212.806 L 137.585 212.717 137.476 202.408 C 137.416 196.739,137.366 201.378,137.366 212.717 M178.589 202.505 C 178.589 208.227,178.642 210.622,178.708 207.827 C 178.774 205.031,178.774 200.349,178.708 197.422 C 178.643 194.495,178.589 196.782,178.589 202.505 M364.162 202.511 L 364.162 212.730 354.046 212.627 L 343.931 212.524 343.822 203.276 C 343.762 198.189,343.809 193.637,343.926 193.160 L 344.138 192.293 354.150 192.293 L 364.162 192.293 364.162 202.511 M13.403 223.121 L 13.512 233.526 6.756 233.526 L 0.000 233.526 0.000 285.191 L 0.000 336.855 6.744 336.675 L 13.487 336.495 13.577 346.764 L 13.667 357.033 13.776 346.924 L 13.886 336.814 23.995 336.705 L 34.104 336.596 23.796 336.506 L 13.487 336.416 13.493 327.071 C 13.496 321.932,13.604 317.331,13.733 316.847 L 13.969 315.968 24.229 316.077 L 34.489 316.185 34.381 305.877 C 34.321 300.207,34.321 295.529,34.381 295.481 C 34.441 295.432,43.680 295.302,54.913 295.192 L 75.337 294.990 75.437 274.663 C 75.492 263.483,75.492 254.302,75.437 254.261 C 75.382 254.221,70.742 254.091,65.125 253.972 L 54.913 253.757 54.811 243.648 L 54.708 233.539 44.599 233.436 L 34.489 233.333 34.489 223.062 C 34.489 217.412,34.359 212.870,34.200 212.969 C 34.041 213.067,33.911 217.736,33.911 223.343 L 33.911 233.539 23.988 233.436 L 14.066 233.333 13.963 223.025 C 13.906 217.355,13.733 212.717,13.578 212.717 C 13.422 212.716,13.344 217.398,13.403 223.121 M183.741 213.005 C 186.349 213.072,190.511 213.071,192.989 213.004 C 195.468 212.937,193.333 212.883,188.247 212.883 C 183.160 212.883,181.132 212.938,183.741 213.005 M96.137 243.733 C 96.146 253.397,96.195 254.137,96.828 254.195 C 97.293 254.237,97.326 254.199,96.931 254.076 C 96.438 253.923,96.335 252.360,96.239 243.615 L 96.127 233.333 96.137 243.733 M102.623 254.238 C 105.125 254.305,109.114 254.305,111.486 254.237 C 113.859 254.170,111.811 254.115,106.936 254.115 C 102.062 254.115,100.121 254.171,102.623 254.238 M126.466 254.239 C 132.121 254.299,141.485 254.299,147.275 254.239 C 153.066 254.179,148.439 254.130,136.994 254.130 C 125.549 254.129,120.811 254.179,126.466 254.239 M137.370 284.971 L 137.380 295.376 157.707 295.381 L 178.035 295.386 157.810 295.281 L 137.585 295.176 137.472 284.871 L 137.360 274.566 137.370 284.971 M178.586 283.815 C 178.586 288.902,178.641 290.929,178.708 288.321 C 178.775 285.712,178.775 281.551,178.708 279.072 C 178.641 276.594,178.586 278.728,178.586 283.815 M168.401 315.983 L 158.189 316.185 158.189 326.397 L 158.189 336.609 168.193 336.722 C 173.695 336.784,178.273 336.911,178.366 337.004 C 178.632 337.271,178.681 338.714,178.745 348.272 L 178.805 357.238 188.921 357.135 L 199.037 357.033 199.139 346.917 L 199.242 336.802 208.838 336.802 C 214.116 336.802,218.708 336.696,219.044 336.568 C 219.578 336.363,219.653 335.087,219.653 326.226 L 219.653 316.118 204.561 315.862 C 189.369 315.605,187.060 315.613,168.401 315.983 M199.037 326.397 L 199.037 336.224 188.921 336.224 C 183.357 336.224,178.805 336.093,178.805 335.934 C 178.805 335.776,178.805 331.307,178.805 326.005 L 178.805 316.365 188.921 316.468 L 199.037 316.570 199.037 326.397 M121.846 336.704 C 124.536 336.770,129.045 336.770,131.866 336.704 C 134.686 336.638,132.486 336.584,126.975 336.584 C 121.464 336.584,119.156 336.638,121.846 336.704 M374.464 336.702 L 384.573 336.814 384.685 346.731 L 384.798 356.647 384.788 346.628 L 384.778 336.609 374.566 336.599 L 364.355 336.589 374.464 336.702 M137.356 347.013 C 137.355 352.736,137.409 355.131,137.475 352.335 C 137.541 349.540,137.541 344.857,137.475 341.931 C 137.410 339.004,137.356 341.291,137.356 347.013 M13.652 378.162 C 13.544 378.443,13.514 380.221,13.585 382.111 L 13.714 385.549 13.794 381.798 L 13.873 378.047 23.988 377.938 L 34.104 377.829 23.976 377.739 C 15.845 377.667,13.810 377.750,13.652 378.162 M54.885 378.162 C 54.777 378.443,54.747 380.221,54.818 382.111 L 54.947 385.549 55.027 381.798 L 55.106 378.047 65.222 377.938 L 75.337 377.829 65.209 377.739 C 57.078 377.667,55.043 377.750,54.885 378.162 M96.118 378.162 C 96.010 378.443,95.980 380.221,96.051 382.111 L 96.181 385.549 96.260 381.798 L 96.339 378.047 106.455 377.938 L 116.570 377.829 106.443 377.739 C 98.311 377.667,96.276 377.750,96.118 378.162 M291.990 377.935 L 302.092 378.047 302.224 381.703 L 302.356 385.358 302.334 381.600 L 302.312 377.842 292.100 377.832 L 281.888 377.822 291.990 377.935 M333.223 377.935 L 343.325 378.047 343.457 381.703 L 343.589 385.358 343.567 381.600 L 343.545 377.842 333.333 377.832 L 323.121 377.822 333.223 377.935 M374.456 377.935 L 384.558 378.047 384.690 381.703 L 384.823 385.358 384.801 381.600 L 384.778 377.842 374.566 377.832 L 364.355 377.822 374.456 377.935 M178.561 381.696 C 178.562 383.815,178.626 384.633,178.705 383.513 C 178.783 382.393,178.782 380.659,178.703 379.660 C 178.624 378.660,178.560 379.576,178.561 381.696 M219.792 381.888 C 219.792 383.902,219.857 384.725,219.936 383.719 C 220.016 382.712,220.016 381.065,219.936 380.058 C 219.857 379.051,219.792 379.875,219.792 381.888 " stroke="none" fill="#fb7c04" fill-rule="evenodd"></path></g></svg>